# xmcd
#
# Track frame offsets:
#	150
#	34232
#	58897
#	84534
#	105160
#	147363
#	181856
#	212115
#	235355
#	259523
#	288983
#	321856
#
# Disc length: 4781 seconds
#
# Revision: 0
# Processed by: cddbd v1.5.2PL0 Copyright (c) Steve Scherf et al.
# Submitted via: EasyCDDAExtractor 10.0.3.1
#
DISCID=aa12ab0c
DTITLE=The Elvin Bishop Band - Live at the Record Plant, Sausalito
DYEAR=1973
DGENRE=Blues
TTITLE0=Travelin Shoes
TTITLE1=Little Brother Bill
TTITLE2=Mockingbird
TTITLE3=Down In The Valley
TTITLE4=Piggly Wiggly
TTITLE5=Watermelon
TTITLE6=I Need Your Lovin Everyday
TTITLE7=Ground Hog
TTITLE8=Go Fishing
TTITLE9=Wide River
TTITLE10=Party Till The Cows Come Home
TTITLE11=Little Brown Bird
EXTD=
EXTT0=
EXTT1=
EXTT2=
EXTT3=
EXTT4=
EXTT5=
EXTT6=
EXTT7=
EXTT8=
EXTT9=
EXTT10=
EXTT11=
PLAYORDER=
